<svg width="48" height="49" viewBox="0 0 48 49" fill="none" xmlns="http://www.w3.org/2000/svg">
<path d="M23.9001 0.799986C37.1001 0.799987 47.8001 11.5 47.8001 24.7C47.8 37.9 37.1 48.6 23.9 48.6C10.7001 48.6 5.05265e-05 37.9 5.16805e-05 24.7C5.28344e-05 11.5 10.7001 0.799985 23.9001 0.799986ZM23.9 46C35.6 46 45.2 36.4 45.2001 24.7C45.2001 13 35.6001 3.39999 23.9001 3.39999C12.2001 3.39999 2.60005 13 2.60005 24.7C2.60005 36.4 12.2001 46 23.9 46Z" fill="#BC002D"/>
<path d="M23.9001 0.799986C37.1001 0.799987 47.8001 11.5 47.8001 24.7C47.8 37.9 37.1 48.6 23.9 48.6C10.7001 48.6 5.05265e-05 37.9 5.16805e-05 24.7C5.28344e-05 11.5 10.7001 0.799985 23.9001 0.799986Z" fill="#BC002D"/>
<path d="M24.4 11L26.2 12.9L14.5 24.7L26.2 36.5L24.4 38.4L10.7 24.7L24.4 11Z" fill="white"/>
<path d="M12.6001 23.3L36.6001 23.3L36.6001 26.1L12.6001 26.1L12.6001 23.3Z" fill="white"/>
</svg>
