<svg width="48" height="49" viewBox="0 0 48 49" fill="none" xmlns="http://www.w3.org/2000/svg">
<path d="M23.9 48.6C10.7 48.6 0 37.9 0 24.7C0 11.5 10.7 0.799988 23.9 0.799988C37.1 0.799988 47.8 11.5 47.8 24.7C47.8 37.9 37.1 48.6 23.9 48.6ZM23.9 3.39999C12.2 3.39999 2.6 13 2.6 24.7C2.6 36.4 12.2 46 23.9 46C35.6 46 45.2 36.4 45.2 24.7C45.2 13 35.6 3.39999 23.9 3.39999Z" fill="#BC002D"/>
<path d="M23.9 48.6C10.7 48.6 0 37.9 0 24.7C0 11.5 10.7 0.799988 23.9 0.799988C37.1 0.799988 47.8 11.5 47.8 24.7C47.8 37.9 37.1 48.6 23.9 48.6Z" fill="#BC002D"/>
<path d="M23.4001 38.4L21.6001 36.5L33.3001 24.7L21.6001 12.9L23.4001 11L37.1001 24.7L23.4001 38.4Z" fill="white"/>
<path d="M35.2 26.1L11.2 26.1V23.3L35.2 23.3V26.1Z" fill="white"/>
</svg>
