<svg width="13" height="15" viewBox="0 0 13 15" fill="none" xmlns="http://www.w3.org/2000/svg">
<g clip-path="url(#clip0_103_106)">
<path d="M6.5 14.6053C9.86549 14.6053 12.5938 11.4242 12.5938 7.50004C12.5938 3.57591 9.86549 0.394775 6.5 0.394775C3.13451 0.394775 0.40625 3.57591 0.40625 7.50004C0.40625 11.4242 3.13451 14.6053 6.5 14.6053Z" stroke="black" stroke-width="0.5" stroke-miterlimit="10"/>
<path d="M0.40625 6.71057H12.5937" stroke="black" stroke-width="0.5" stroke-miterlimit="10"/>
<path d="M3.25 13.0264V6.71057" stroke="black" stroke-width="0.5" stroke-miterlimit="10"/>
<path d="M4.46875 14.2105V7.10522" stroke="black" stroke-width="0.5" stroke-miterlimit="10"/>
<path d="M6.09375 14.6053V6.71057" stroke="black" stroke-width="0.5" stroke-miterlimit="10"/>
<path d="M2.03125 11.8421L1.625 6.71057" stroke="black" stroke-width="0.5" stroke-miterlimit="10"/>
<path d="M7.3125 14.6053V6.71057" stroke="black" stroke-width="0.5" stroke-miterlimit="10"/>
<path d="M8.53125 14.2105V7.10522" stroke="black" stroke-width="0.5" stroke-miterlimit="10"/>
<path d="M9.75 13.4211V6.71057" stroke="black" stroke-width="0.5" stroke-miterlimit="10"/>
<path d="M10.9688 11.8421V6.71057" stroke="black" stroke-width="0.5" stroke-miterlimit="10"/>
<path d="M9.75 13.4211L3.25 13.0264" stroke="black" stroke-width="0.5" stroke-miterlimit="10"/>
<path d="M2.03125 11.8422H10.9688" stroke="black" stroke-width="0.5" stroke-miterlimit="10"/>
<path d="M11.7813 10.6578H1.21875" stroke="black" stroke-width="0.5" stroke-miterlimit="10"/>
<path d="M0.8125 9.47363H12.1875" stroke="black" stroke-width="0.5" stroke-miterlimit="10"/>
<path d="M12.5937 7.89478H0.40625" stroke="black" stroke-width="0.5" stroke-miterlimit="10"/>
<path d="M0.8125 6.71052C0.855889 6.05279 1.04469 4.78195 1.98518 3.5228C2.33816 3.04995 3.02535 2.15526 4.33054 1.61016C5.24289 1.2287 6.04735 1.19151 6.3241 1.18513C6.54222 1.18088 7.47802 1.17344 8.55219 1.61016C10.0391 2.2137 10.799 3.26353 11.1321 3.73531C11.9729 4.92964 12.1465 6.09848 12.1875 6.71052" stroke="black" stroke-width="0.5" stroke-miterlimit="10"/>
</g>
<defs>
<clipPath id="clip0_103_106">
<rect width="13" height="15" fill="white"/>
</clipPath>
</defs>
</svg>
