<svg width="1440" height="290" viewBox="0 0 1440 290" fill="none" xmlns="http://www.w3.org/2000/svg">
<rect width="1440" height="290" fill="white"/>
<path d="M72.96 189V96.84H84.48L132.544 168.84V96.84H144.064V189H132.544L84.48 116.936V189H72.96ZM163.24 189V96.84H174.632V189H163.24ZM193.835 189V96.84H230.251C231.147 96.84 232.214 96.8827 233.451 96.968C234.688 97.0107 235.883 97.1387 237.035 97.352C242.027 98.12 246.208 99.8267 249.579 102.472C252.992 105.117 255.552 108.467 257.259 112.52C258.966 116.531 259.819 120.989 259.819 125.896C259.819 130.76 258.944 135.219 257.195 139.272C255.488 143.283 252.928 146.632 249.515 149.32C246.144 151.965 241.984 153.672 237.035 154.44C235.883 154.611 234.688 154.739 233.451 154.824C232.214 154.909 231.147 154.952 230.251 154.952H205.227V189H193.835ZM205.227 144.136H229.867C230.678 144.136 231.595 144.093 232.619 144.008C233.686 143.923 234.688 143.773 235.627 143.56C238.571 142.877 240.96 141.64 242.795 139.848C244.672 138.013 246.038 135.88 246.891 133.448C247.744 130.973 248.171 128.456 248.171 125.896C248.171 123.336 247.744 120.84 246.891 118.408C246.038 115.933 244.672 113.779 242.795 111.944C240.96 110.109 238.571 108.872 235.627 108.232C234.688 107.976 233.686 107.827 232.619 107.784C231.595 107.699 230.678 107.656 229.867 107.656H205.227V144.136ZM272.585 189V96.84H309.001C309.897 96.84 310.964 96.8827 312.201 96.968C313.438 97.0107 314.633 97.1387 315.785 97.352C320.777 98.12 324.958 99.8267 328.329 102.472C331.742 105.117 334.302 108.467 336.009 112.52C337.716 116.531 338.569 120.989 338.569 125.896C338.569 130.76 337.694 135.219 335.945 139.272C334.238 143.283 331.678 146.632 328.265 149.32C324.894 151.965 320.734 153.672 315.785 154.44C314.633 154.611 313.438 154.739 312.201 154.824C310.964 154.909 309.897 154.952 309.001 154.952H283.977V189H272.585ZM283.977 144.136H308.617C309.428 144.136 310.345 144.093 311.369 144.008C312.436 143.923 313.438 143.773 314.377 143.56C317.321 142.877 319.71 141.64 321.545 139.848C323.422 138.013 324.788 135.88 325.641 133.448C326.494 130.973 326.921 128.456 326.921 125.896C326.921 123.336 326.494 120.84 325.641 118.408C324.788 115.933 323.422 113.779 321.545 111.944C319.71 110.109 317.321 108.872 314.377 108.232C313.438 107.976 312.436 107.827 311.369 107.784C310.345 107.699 309.428 107.656 308.617 107.656H283.977V144.136ZM389.223 190.92C380.05 190.92 372.263 188.893 365.863 184.84C359.463 180.787 354.578 175.155 351.207 167.944C347.879 160.733 346.215 152.392 346.215 142.92C346.215 133.448 347.879 125.107 351.207 117.896C354.578 110.685 359.463 105.053 365.863 101C372.263 96.9467 380.05 94.92 389.223 94.92C398.439 94.92 406.247 96.9467 412.647 101C419.047 105.053 423.911 110.685 427.239 117.896C430.567 125.107 432.231 133.448 432.231 142.92C432.231 152.392 430.567 160.733 427.239 167.944C423.911 175.155 419.047 180.787 412.647 184.84C406.247 188.893 398.439 190.92 389.223 190.92ZM389.223 180.04C396.092 180.083 401.81 178.547 406.375 175.432C410.983 172.275 414.418 167.901 416.679 162.312C418.983 156.723 420.135 150.259 420.135 142.92C420.135 135.539 418.983 129.075 416.679 123.528C414.418 117.981 410.983 113.651 406.375 110.536C401.81 107.421 396.092 105.843 389.223 105.8C382.354 105.757 376.636 107.293 372.071 110.408C367.548 113.523 364.135 117.875 361.831 123.464C359.527 129.053 358.354 135.539 358.311 142.92C358.268 150.259 359.399 156.701 361.703 162.248C364.007 167.795 367.442 172.147 372.007 175.304C376.615 178.419 382.354 179.997 389.223 180.04ZM445.085 189V96.84H456.605L504.669 168.84V96.84H516.189V189H504.669L456.605 116.936V189H445.085Z" fill="black"/>
<path d="M948.504 102.818H950.761L953.784 110.196H953.903L956.926 102.818H959.183V113H957.413V106.005H957.319L954.505 112.97H953.183L950.369 105.99H950.274V113H948.504V102.818ZM964.913 113.149C964.147 113.149 963.486 112.99 962.929 112.672C962.376 112.35 961.95 111.896 961.652 111.31C961.353 110.72 961.204 110.025 961.204 109.227C961.204 108.441 961.353 107.752 961.652 107.158C961.953 106.562 962.374 106.098 962.914 105.766C963.455 105.432 964.089 105.264 964.818 105.264C965.289 105.264 965.733 105.34 966.151 105.493C966.572 105.642 966.943 105.874 967.264 106.189C967.589 106.504 967.844 106.905 968.03 107.392C968.216 107.876 968.308 108.453 968.308 109.122V109.674H962.049V108.461H966.583C966.58 108.116 966.505 107.81 966.36 107.541C966.214 107.269 966.01 107.056 965.748 106.9C965.49 106.744 965.188 106.666 964.843 106.666C964.475 106.666 964.152 106.756 963.874 106.935C963.595 107.11 963.378 107.342 963.223 107.631C963.07 107.916 962.992 108.229 962.989 108.57V109.629C962.989 110.073 963.07 110.455 963.233 110.773C963.395 111.088 963.622 111.33 963.914 111.499C964.205 111.664 964.547 111.747 964.938 111.747C965.2 111.747 965.437 111.711 965.649 111.638C965.861 111.562 966.045 111.451 966.201 111.305C966.356 111.159 966.474 110.978 966.554 110.763L968.234 110.952C968.128 111.396 967.926 111.784 967.627 112.115C967.332 112.443 966.955 112.698 966.494 112.881C966.033 113.06 965.506 113.149 964.913 113.149ZM972.051 108.526V113H970.251V105.364H971.971V106.661H972.061C972.236 106.234 972.516 105.894 972.901 105.642C973.289 105.39 973.768 105.264 974.338 105.264C974.865 105.264 975.324 105.377 975.715 105.602C976.109 105.828 976.414 106.154 976.63 106.582C976.848 107.009 976.956 107.528 976.953 108.138V113H975.153V108.416C975.153 107.906 975.02 107.506 974.755 107.218C974.493 106.93 974.131 106.786 973.667 106.786C973.352 106.786 973.072 106.855 972.826 106.994C972.584 107.13 972.394 107.327 972.255 107.586C972.119 107.844 972.051 108.158 972.051 108.526ZM984.069 109.788V105.364H985.869V113H984.124V111.643H984.045C983.872 112.07 983.589 112.42 983.194 112.692C982.803 112.964 982.321 113.099 981.748 113.099C981.247 113.099 980.805 112.988 980.42 112.766C980.039 112.541 979.741 112.214 979.525 111.787C979.31 111.356 979.202 110.836 979.202 110.226V105.364H981.002V109.947C981.002 110.431 981.135 110.816 981.4 111.101C981.665 111.386 982.013 111.528 982.444 111.528C982.709 111.528 982.966 111.464 983.214 111.335C983.463 111.205 983.667 111.013 983.826 110.758C983.988 110.499 984.069 110.176 984.069 109.788Z" fill="black"/>
<path d="M953.997 128.909C953.942 128.441 953.717 128.078 953.323 127.82C952.93 127.561 952.446 127.432 951.874 127.432C951.455 127.432 951.089 127.5 950.775 127.635C950.464 127.77 950.221 127.957 950.046 128.194C949.873 128.431 949.787 128.7 949.787 129.001C949.787 129.254 949.847 129.471 949.967 129.652C950.09 129.831 950.247 129.98 950.438 130.1C950.629 130.217 950.829 130.314 951.038 130.391C951.248 130.465 951.44 130.525 951.615 130.571L952.576 130.83C952.822 130.894 953.096 130.983 953.397 131.097C953.702 131.211 953.993 131.367 954.27 131.564C954.55 131.757 954.781 132.007 954.962 132.311C955.144 132.616 955.235 132.99 955.235 133.433C955.235 133.944 955.101 134.406 954.833 134.818C954.568 135.231 954.181 135.558 953.67 135.801C953.162 136.045 952.545 136.166 951.818 136.166C951.141 136.166 950.555 136.057 950.06 135.838C949.567 135.62 949.179 135.315 948.896 134.924C948.616 134.533 948.458 134.08 948.421 133.562H949.603C949.633 133.92 949.753 134.215 949.963 134.449C950.175 134.68 950.443 134.852 950.766 134.966C951.092 135.077 951.443 135.132 951.818 135.132C952.256 135.132 952.648 135.061 952.996 134.92C953.343 134.775 953.619 134.575 953.822 134.32C954.025 134.061 954.127 133.759 954.127 133.415C954.127 133.101 954.039 132.845 953.864 132.648C953.688 132.451 953.457 132.291 953.171 132.168C952.885 132.045 952.576 131.937 952.243 131.845L951.08 131.513C950.341 131.3 949.756 130.997 949.326 130.603C948.895 130.209 948.679 129.694 948.679 129.057C948.679 128.527 948.822 128.066 949.109 127.672C949.398 127.275 949.786 126.967 950.272 126.749C950.761 126.527 951.308 126.416 951.911 126.416C952.52 126.416 953.062 126.525 953.536 126.744C954.01 126.959 954.385 127.255 954.662 127.63C954.942 128.006 955.09 128.432 955.105 128.909H953.997ZM959.056 136.166C958.607 136.166 958.199 136.082 957.833 135.912C957.466 135.74 957.176 135.492 956.96 135.169C956.745 134.843 956.637 134.449 956.637 133.987C956.637 133.581 956.717 133.252 956.877 132.999C957.037 132.744 957.251 132.544 957.519 132.399C957.786 132.254 958.082 132.147 958.405 132.076C958.731 132.002 959.059 131.944 959.388 131.901C959.819 131.845 960.169 131.804 960.436 131.776C960.707 131.745 960.904 131.694 961.027 131.624C961.153 131.553 961.216 131.43 961.216 131.254V131.217C961.216 130.762 961.092 130.408 960.843 130.156C960.596 129.903 960.222 129.777 959.721 129.777C959.201 129.777 958.793 129.891 958.497 130.119C958.202 130.346 957.994 130.589 957.874 130.848L956.84 130.479C957.025 130.048 957.271 129.712 957.579 129.472C957.89 129.229 958.228 129.06 958.594 128.964C958.964 128.866 959.327 128.817 959.684 128.817C959.912 128.817 960.173 128.844 960.469 128.9C960.767 128.952 961.055 129.061 961.332 129.228C961.612 129.394 961.844 129.645 962.029 129.98C962.214 130.316 962.306 130.765 962.306 131.328V136H961.216V135.04H961.161C961.087 135.194 960.964 135.358 960.792 135.534C960.619 135.709 960.39 135.858 960.104 135.982C959.818 136.105 959.468 136.166 959.056 136.166ZM959.222 135.188C959.653 135.188 960.016 135.103 960.312 134.934C960.61 134.764 960.835 134.546 960.986 134.278C961.14 134.01 961.216 133.729 961.216 133.433V132.436C961.17 132.491 961.069 132.542 960.912 132.588C960.758 132.632 960.579 132.67 960.376 132.704C960.176 132.735 959.981 132.762 959.79 132.787C959.602 132.808 959.45 132.827 959.333 132.842C959.05 132.879 958.785 132.939 958.539 133.022C958.296 133.102 958.099 133.224 957.948 133.387C957.8 133.547 957.726 133.766 957.726 134.043C957.726 134.421 957.866 134.707 958.147 134.901C958.43 135.092 958.788 135.188 959.222 135.188ZM959.758 128.115C959.444 128.115 959.159 128.046 958.904 127.907C958.651 127.769 958.45 127.581 958.299 127.344C958.151 127.107 958.077 126.841 958.077 126.545C958.077 126.25 958.151 125.979 958.299 125.733C958.45 125.487 958.651 125.29 958.904 125.142C959.159 124.994 959.444 124.92 959.758 124.92C960.072 124.92 960.353 124.994 960.602 125.142C960.855 125.29 961.053 125.487 961.198 125.733C961.346 125.979 961.42 126.25 961.42 126.545C961.42 126.841 961.346 127.107 961.198 127.344C961.053 127.581 960.855 127.769 960.602 127.907C960.353 128.046 960.072 128.115 959.758 128.115ZM959.758 127.413C960.016 127.413 960.229 127.324 960.395 127.146C960.561 126.967 960.644 126.767 960.644 126.545C960.644 126.315 960.561 126.107 960.395 125.922C960.229 125.734 960.016 125.641 959.758 125.641C959.499 125.641 959.287 125.734 959.121 125.922C958.954 126.107 958.871 126.315 958.871 126.545C958.871 126.767 958.954 126.967 959.121 127.146C959.287 127.324 959.499 127.413 959.758 127.413ZM966.972 136.148C966.381 136.148 965.86 135.998 965.407 135.7C964.955 135.398 964.601 134.974 964.345 134.426C964.09 133.875 963.962 133.224 963.962 132.473C963.962 131.728 964.09 131.082 964.345 130.534C964.601 129.986 964.956 129.563 965.412 129.265C965.867 128.966 966.393 128.817 966.991 128.817C967.452 128.817 967.817 128.894 968.085 129.048C968.355 129.198 968.562 129.371 968.703 129.565C968.848 129.755 968.96 129.912 969.04 130.036H969.133V126.545H970.222V136H969.17V134.911H969.04C968.96 135.04 968.846 135.203 968.699 135.4C968.551 135.594 968.34 135.768 968.066 135.922C967.792 136.072 967.428 136.148 966.972 136.148ZM967.12 135.169C967.557 135.169 967.926 135.055 968.228 134.827C968.529 134.597 968.759 134.278 968.916 133.872C969.073 133.462 969.151 132.99 969.151 132.455C969.151 131.925 969.074 131.462 968.92 131.065C968.766 130.665 968.539 130.354 968.237 130.132C967.935 129.908 967.563 129.795 967.12 129.795C966.658 129.795 966.273 129.914 965.966 130.151C965.661 130.385 965.432 130.703 965.278 131.107C965.127 131.507 965.052 131.956 965.052 132.455C965.052 132.959 965.129 133.418 965.282 133.83C965.439 134.24 965.67 134.566 965.975 134.809C966.283 135.049 966.664 135.169 967.12 135.169ZM974.455 136.166C974.006 136.166 973.598 136.082 973.232 135.912C972.866 135.74 972.575 135.492 972.36 135.169C972.144 134.843 972.036 134.449 972.036 133.987C972.036 133.581 972.116 133.252 972.276 132.999C972.436 132.744 972.65 132.544 972.918 132.399C973.186 132.254 973.481 132.147 973.804 132.076C974.131 132.002 974.458 131.944 974.788 131.901C975.219 131.845 975.568 131.804 975.836 131.776C976.107 131.745 976.304 131.694 976.427 131.624C976.553 131.553 976.616 131.43 976.616 131.254V131.217C976.616 130.762 976.491 130.408 976.242 130.156C975.996 129.903 975.622 129.777 975.12 129.777C974.6 129.777 974.192 129.891 973.897 130.119C973.601 130.346 973.394 130.589 973.274 130.848L972.239 130.479C972.424 130.048 972.67 129.712 972.978 129.472C973.289 129.229 973.628 129.06 973.994 128.964C974.363 128.866 974.726 128.817 975.083 128.817C975.311 128.817 975.573 128.844 975.868 128.9C976.167 128.952 976.454 129.061 976.731 129.228C977.011 129.394 977.244 129.645 977.428 129.98C977.613 130.316 977.705 130.765 977.705 131.328V136H976.616V135.04H976.561C976.487 135.194 976.364 135.358 976.191 135.534C976.019 135.709 975.79 135.858 975.503 135.982C975.217 136.105 974.868 136.166 974.455 136.166ZM974.622 135.188C975.052 135.188 975.416 135.103 975.711 134.934C976.01 134.764 976.234 134.546 976.385 134.278C976.539 134.01 976.616 133.729 976.616 133.433V132.436C976.57 132.491 976.468 132.542 976.311 132.588C976.157 132.632 975.979 132.67 975.776 132.704C975.576 132.735 975.38 132.762 975.189 132.787C975.002 132.808 974.849 132.827 974.732 132.842C974.449 132.879 974.185 132.939 973.938 133.022C973.695 133.102 973.498 133.224 973.347 133.387C973.2 133.547 973.126 133.766 973.126 134.043C973.126 134.421 973.266 134.707 973.546 134.901C973.829 135.092 974.188 135.188 974.622 135.188ZM980.783 131.734V136H979.694V128.909H980.746V130.017H980.839C981.005 129.657 981.257 129.368 981.596 129.149C981.934 128.928 982.371 128.817 982.907 128.817C983.387 128.817 983.807 128.915 984.167 129.112C984.527 129.306 984.807 129.602 985.008 129.999C985.208 130.393 985.308 130.891 985.308 131.494V136H984.218V131.568C984.218 131.011 984.073 130.577 983.784 130.266C983.495 129.952 983.098 129.795 982.593 129.795C982.245 129.795 981.934 129.871 981.661 130.022C981.39 130.172 981.176 130.393 981.019 130.682C980.862 130.971 980.783 131.322 980.783 131.734ZM996.753 128.909L994.131 136H993.023L990.401 128.909H991.583L993.54 134.56H993.614L995.571 128.909H996.753ZM998.191 136V128.909H999.28V136H998.191ZM998.745 127.727C998.533 127.727 998.35 127.655 998.196 127.51C998.045 127.366 997.969 127.192 997.969 126.989C997.969 126.786 998.045 126.612 998.196 126.467C998.35 126.322 998.533 126.25 998.745 126.25C998.957 126.25 999.139 126.322 999.29 126.467C999.444 126.612 999.521 126.786 999.521 126.989C999.521 127.192 999.444 127.366 999.29 127.51C999.139 127.655 998.957 127.727 998.745 127.727ZM1001.28 136V128.909H1002.33V129.98H1002.4C1002.53 129.629 1002.77 129.345 1003.1 129.126C1003.44 128.908 1003.82 128.798 1004.25 128.798C1004.33 128.798 1004.43 128.8 1004.55 128.803C1004.67 128.806 1004.76 128.811 1004.82 128.817V129.925C1004.78 129.915 1004.7 129.902 1004.57 129.883C1004.44 129.862 1004.3 129.851 1004.16 129.851C1003.81 129.851 1003.5 129.923 1003.23 130.068C1002.97 130.209 1002.75 130.406 1002.6 130.659C1002.44 130.908 1002.37 131.193 1002.37 131.513V136H1001.28ZM1007.13 133.415L1007.11 132.067H1007.33L1010.43 128.909H1011.78L1008.48 132.251H1008.38L1007.13 133.415ZM1006.11 136V126.545H1007.2V136H1006.11ZM1010.62 136L1007.85 132.491L1008.62 131.734L1012 136H1010.62ZM1015.87 136.148C1015.18 136.148 1014.59 135.997 1014.1 135.695C1013.6 135.391 1013.22 134.966 1012.96 134.421C1012.69 133.873 1012.56 133.236 1012.56 132.51C1012.56 131.784 1012.69 131.143 1012.96 130.589C1013.22 130.032 1013.6 129.598 1014.07 129.288C1014.55 128.974 1015.11 128.817 1015.75 128.817C1016.12 128.817 1016.49 128.878 1016.85 129.001C1017.21 129.125 1017.54 129.325 1017.83 129.602C1018.13 129.875 1018.36 130.239 1018.54 130.691C1018.71 131.143 1018.8 131.701 1018.8 132.362V132.824H1013.34V131.882H1017.69C1017.69 131.482 1017.61 131.125 1017.45 130.811C1017.3 130.497 1017.07 130.249 1016.78 130.068C1016.49 129.886 1016.15 129.795 1015.75 129.795C1015.32 129.795 1014.94 129.903 1014.63 130.119C1014.31 130.331 1014.07 130.608 1013.9 130.95C1013.73 131.291 1013.65 131.657 1013.65 132.048V132.676C1013.65 133.212 1013.74 133.666 1013.93 134.038C1014.11 134.407 1014.37 134.689 1014.71 134.883C1015.04 135.074 1015.43 135.169 1015.87 135.169C1016.15 135.169 1016.41 135.129 1016.64 135.049C1016.87 134.966 1017.08 134.843 1017.25 134.68C1017.41 134.513 1017.55 134.307 1017.64 134.061L1018.69 134.357C1018.58 134.714 1018.39 135.027 1018.13 135.298C1017.87 135.566 1017.55 135.775 1017.16 135.926C1016.78 136.074 1016.35 136.148 1015.87 136.148ZM1020.46 136V128.909H1021.51V129.98H1021.59C1021.71 129.629 1021.95 129.345 1022.29 129.126C1022.63 128.908 1023.01 128.798 1023.43 128.798C1023.51 128.798 1023.61 128.8 1023.73 128.803C1023.85 128.806 1023.94 128.811 1024 128.817V129.925C1023.97 129.915 1023.88 129.902 1023.75 129.883C1023.62 129.862 1023.48 129.851 1023.34 129.851C1022.99 129.851 1022.69 129.923 1022.42 130.068C1022.15 130.209 1021.94 130.406 1021.78 130.659C1021.63 130.908 1021.55 131.193 1021.55 131.513V136H1020.46ZM1031.63 136.148C1031.04 136.148 1030.52 135.998 1030.06 135.7C1029.61 135.398 1029.26 134.974 1029 134.426C1028.75 133.875 1028.62 133.224 1028.62 132.473C1028.62 131.728 1028.75 131.082 1029 130.534C1029.26 129.986 1029.61 129.563 1030.07 129.265C1030.52 128.966 1031.05 128.817 1031.65 128.817C1032.11 128.817 1032.47 128.894 1032.74 129.048C1033.01 129.198 1033.22 129.371 1033.36 129.565C1033.51 129.755 1033.62 129.912 1033.7 130.036H1033.79V126.545H1034.88V136H1033.83V134.911H1033.7C1033.62 135.04 1033.5 135.203 1033.36 135.4C1033.21 135.594 1033 135.768 1032.72 135.922C1032.45 136.072 1032.08 136.148 1031.63 136.148ZM1031.78 135.169C1032.21 135.169 1032.58 135.055 1032.88 134.827C1033.19 134.597 1033.42 134.278 1033.57 133.872C1033.73 133.462 1033.81 132.99 1033.81 132.455C1033.81 131.925 1033.73 131.462 1033.58 131.065C1033.42 130.665 1033.2 130.354 1032.89 130.132C1032.59 129.908 1032.22 129.795 1031.78 129.795C1031.32 129.795 1030.93 129.914 1030.62 130.151C1030.32 130.385 1030.09 130.703 1029.94 131.107C1029.78 131.507 1029.71 131.956 1029.71 132.455C1029.71 132.959 1029.79 133.418 1029.94 133.83C1030.1 134.24 1030.33 134.566 1030.63 134.809C1030.94 135.049 1031.32 135.169 1031.78 135.169ZM1040 136.148C1039.32 136.148 1038.73 135.997 1038.23 135.695C1037.74 135.391 1037.36 134.966 1037.09 134.421C1036.83 133.873 1036.69 133.236 1036.69 132.51C1036.69 131.784 1036.83 131.143 1037.09 130.589C1037.36 130.032 1037.73 129.598 1038.21 129.288C1038.69 128.974 1039.25 128.817 1039.89 128.817C1040.26 128.817 1040.62 128.878 1040.98 129.001C1041.34 129.125 1041.67 129.325 1041.97 129.602C1042.26 129.875 1042.5 130.239 1042.67 130.691C1042.85 131.143 1042.94 131.701 1042.94 132.362V132.824H1037.47V131.882H1041.83C1041.83 131.482 1041.75 131.125 1041.59 130.811C1041.43 130.497 1041.21 130.249 1040.91 130.068C1040.62 129.886 1040.28 129.795 1039.89 129.795C1039.45 129.795 1039.08 129.903 1038.76 130.119C1038.45 130.331 1038.21 130.608 1038.04 130.95C1037.87 131.291 1037.78 131.657 1037.78 132.048V132.676C1037.78 133.212 1037.88 133.666 1038.06 134.038C1038.25 134.407 1038.51 134.689 1038.84 134.883C1039.17 135.074 1039.56 135.169 1040 135.169C1040.29 135.169 1040.54 135.129 1040.77 135.049C1041.01 134.966 1041.21 134.843 1041.38 134.68C1041.55 134.513 1041.68 134.307 1041.77 134.061L1042.82 134.357C1042.71 134.714 1042.53 135.027 1042.27 135.298C1042 135.566 1041.68 135.775 1041.3 135.926C1040.91 136.074 1040.48 136.148 1040 136.148ZM1047.68 128.909V129.832H1044V128.909H1047.68ZM1045.07 127.21H1046.16V133.969C1046.16 134.277 1046.21 134.507 1046.3 134.661C1046.39 134.812 1046.51 134.914 1046.65 134.966C1046.79 135.015 1046.94 135.04 1047.1 135.04C1047.22 135.04 1047.32 135.034 1047.4 135.021C1047.48 135.006 1047.54 134.994 1047.58 134.984L1047.81 135.963C1047.73 135.991 1047.63 136.018 1047.5 136.046C1047.36 136.077 1047.2 136.092 1046.99 136.092C1046.69 136.092 1046.38 136.026 1046.09 135.894C1045.8 135.761 1045.55 135.56 1045.36 135.289C1045.17 135.018 1045.07 134.677 1045.07 134.264V127.21Z" fill="black"/>
<path d="M949.128 151.545H950.495L953.708 159.393H953.819L957.032 151.545H958.398V161H957.327V153.817H957.235L954.28 161H953.246L950.292 153.817H950.199V161H949.128V151.545ZM962.633 161.166C962.183 161.166 961.776 161.082 961.409 160.912C961.043 160.74 960.752 160.492 960.537 160.169C960.321 159.843 960.214 159.449 960.214 158.987C960.214 158.581 960.294 158.252 960.454 157.999C960.614 157.744 960.828 157.544 961.095 157.399C961.363 157.254 961.659 157.147 961.982 157.076C962.308 157.002 962.636 156.944 962.965 156.901C963.396 156.845 963.745 156.804 964.013 156.776C964.284 156.745 964.481 156.694 964.604 156.624C964.73 156.553 964.793 156.43 964.793 156.254V156.217C964.793 155.762 964.669 155.408 964.419 155.156C964.173 154.903 963.799 154.777 963.297 154.777C962.777 154.777 962.369 154.891 962.074 155.119C961.779 155.346 961.571 155.589 961.451 155.848L960.417 155.479C960.601 155.048 960.848 154.712 961.155 154.472C961.466 154.229 961.805 154.06 962.171 153.964C962.54 153.866 962.903 153.817 963.26 153.817C963.488 153.817 963.75 153.844 964.045 153.9C964.344 153.952 964.632 154.061 964.909 154.228C965.189 154.394 965.421 154.645 965.606 154.98C965.79 155.316 965.883 155.765 965.883 156.328V161H964.793V160.04H964.738C964.664 160.194 964.541 160.358 964.368 160.534C964.196 160.709 963.967 160.858 963.681 160.982C963.394 161.105 963.045 161.166 962.633 161.166ZM962.799 160.188C963.23 160.188 963.593 160.103 963.888 159.934C964.187 159.764 964.412 159.546 964.562 159.278C964.716 159.01 964.793 158.729 964.793 158.433V157.436C964.747 157.491 964.645 157.542 964.488 157.588C964.335 157.632 964.156 157.67 963.953 157.704C963.753 157.735 963.557 157.762 963.367 157.787C963.179 157.808 963.027 157.827 962.91 157.842C962.626 157.879 962.362 157.939 962.116 158.022C961.872 158.102 961.675 158.224 961.525 158.387C961.377 158.547 961.303 158.766 961.303 159.043C961.303 159.421 961.443 159.707 961.723 159.901C962.006 160.092 962.365 160.188 962.799 160.188ZM963.334 153.115C963.02 153.115 962.736 153.046 962.48 152.907C962.228 152.769 962.026 152.581 961.876 152.344C961.728 152.107 961.654 151.841 961.654 151.545C961.654 151.25 961.728 150.979 961.876 150.733C962.026 150.487 962.228 150.29 962.48 150.142C962.736 149.994 963.02 149.92 963.334 149.92C963.648 149.92 963.93 149.994 964.179 150.142C964.432 150.29 964.63 150.487 964.775 150.733C964.922 150.979 964.996 151.25 964.996 151.545C964.996 151.841 964.922 152.107 964.775 152.344C964.63 152.581 964.432 152.769 964.179 152.907C963.93 153.046 963.648 153.115 963.334 153.115ZM963.334 152.413C963.593 152.413 963.805 152.324 963.971 152.146C964.138 151.967 964.221 151.767 964.221 151.545C964.221 151.315 964.138 151.107 963.971 150.922C963.805 150.734 963.593 150.641 963.334 150.641C963.076 150.641 962.863 150.734 962.697 150.922C962.531 151.107 962.448 151.315 962.448 151.545C962.448 151.767 962.531 151.967 962.697 152.146C962.863 152.324 963.076 152.413 963.334 152.413ZM968.961 151.545V161H967.871V151.545H968.961ZM974.04 153.909V154.832H970.365V153.909H974.04ZM971.436 152.21H972.526V158.969C972.526 159.277 972.57 159.507 972.66 159.661C972.752 159.812 972.869 159.914 973.01 159.966C973.155 160.015 973.307 160.04 973.468 160.04C973.588 160.04 973.686 160.034 973.763 160.021C973.84 160.006 973.901 159.994 973.948 159.984L974.169 160.963C974.095 160.991 973.992 161.018 973.86 161.046C973.728 161.077 973.56 161.092 973.357 161.092C973.049 161.092 972.747 161.026 972.452 160.894C972.16 160.761 971.916 160.56 971.722 160.289C971.532 160.018 971.436 159.677 971.436 159.264V152.21ZM975.679 161V153.909H976.768V161H975.679ZM976.233 152.727C976.02 152.727 975.837 152.655 975.683 152.51C975.533 152.366 975.457 152.192 975.457 151.989C975.457 151.786 975.533 151.612 975.683 151.467C975.837 151.322 976.02 151.25 976.233 151.25C976.445 151.25 976.627 151.322 976.778 151.467C976.931 151.612 977.008 151.786 977.008 151.989C977.008 152.192 976.931 152.366 976.778 152.51C976.627 152.655 976.445 152.727 976.233 152.727ZM981.441 161.148C980.85 161.148 980.329 160.998 979.876 160.7C979.424 160.398 979.07 159.974 978.815 159.426C978.559 158.875 978.431 158.224 978.431 157.473C978.431 156.728 978.559 156.082 978.815 155.534C979.07 154.986 979.425 154.563 979.881 154.265C980.336 153.966 980.863 153.817 981.46 153.817C981.921 153.817 982.286 153.894 982.554 154.048C982.825 154.198 983.031 154.371 983.172 154.565C983.317 154.755 983.429 154.912 983.509 155.036H983.602V151.545H984.691V161H983.639V159.911H983.509C983.429 160.04 983.316 160.203 983.168 160.4C983.02 160.594 982.809 160.768 982.535 160.922C982.262 161.072 981.897 161.148 981.441 161.148ZM981.589 160.169C982.026 160.169 982.395 160.055 982.697 159.827C982.999 159.597 983.228 159.278 983.385 158.872C983.542 158.462 983.62 157.99 983.62 157.455C983.62 156.925 983.543 156.462 983.389 156.065C983.236 155.665 983.008 155.354 982.706 155.132C982.405 154.908 982.032 154.795 981.589 154.795C981.127 154.795 980.743 154.914 980.435 155.151C980.13 155.385 979.901 155.703 979.747 156.107C979.596 156.507 979.521 156.956 979.521 157.455C979.521 157.959 979.598 158.418 979.752 158.83C979.909 159.24 980.139 159.566 980.444 159.809C980.752 160.049 981.134 160.169 981.589 160.169ZM991.861 155.497L990.882 155.774C990.82 155.611 990.73 155.453 990.61 155.299C990.493 155.142 990.333 155.012 990.13 154.911C989.926 154.809 989.666 154.759 989.349 154.759C988.915 154.759 988.554 154.859 988.264 155.059C987.978 155.256 987.835 155.506 987.835 155.811C987.835 156.082 987.934 156.296 988.131 156.453C988.328 156.61 988.635 156.741 989.054 156.845L990.106 157.104C990.74 157.258 991.213 157.493 991.524 157.81C991.835 158.124 991.99 158.529 991.99 159.024C991.99 159.43 991.873 159.794 991.639 160.114C991.408 160.434 991.085 160.686 990.67 160.871C990.254 161.055 989.771 161.148 989.22 161.148C988.497 161.148 987.898 160.991 987.424 160.677C986.95 160.363 986.65 159.904 986.524 159.301L987.558 159.043C987.657 159.424 987.843 159.71 988.117 159.901C988.394 160.092 988.755 160.188 989.202 160.188C989.709 160.188 990.113 160.08 990.411 159.864C990.713 159.646 990.864 159.384 990.864 159.08C990.864 158.833 990.777 158.627 990.605 158.461C990.433 158.292 990.168 158.165 989.811 158.082L988.629 157.805C987.98 157.652 987.503 157.413 987.198 157.09C986.896 156.764 986.746 156.356 986.746 155.866C986.746 155.466 986.858 155.112 987.083 154.805C987.31 154.497 987.62 154.255 988.011 154.08C988.405 153.904 988.851 153.817 989.349 153.817C990.051 153.817 990.602 153.971 991.002 154.278C991.405 154.586 991.691 154.992 991.861 155.497ZM994.646 158.415L994.627 157.067H994.849L997.951 153.909H999.299L995.994 157.251H995.901L994.646 158.415ZM993.63 161V151.545H994.719V161H993.63ZM998.136 161L995.366 157.491L996.141 156.734L999.521 161H998.136ZM1002.79 161.166C1002.34 161.166 1001.93 161.082 1001.56 160.912C1001.2 160.74 1000.91 160.492 1000.69 160.169C1000.48 159.843 1000.37 159.449 1000.37 158.987C1000.37 158.581 1000.45 158.252 1000.61 157.999C1000.77 157.744 1000.98 157.544 1001.25 157.399C1001.52 157.254 1001.81 157.147 1002.14 157.076C1002.46 157.002 1002.79 156.944 1003.12 156.901C1003.55 156.845 1003.9 156.804 1004.17 156.776C1004.44 156.745 1004.64 156.694 1004.76 156.624C1004.89 156.553 1004.95 156.43 1004.95 156.254V156.217C1004.95 155.762 1004.82 155.408 1004.57 155.156C1004.33 154.903 1003.95 154.777 1003.45 154.777C1002.93 154.777 1002.52 154.891 1002.23 155.119C1001.93 155.346 1001.73 155.589 1001.61 155.848L1000.57 155.479C1000.76 155.048 1001 154.712 1001.31 154.472C1001.62 154.229 1001.96 154.06 1002.33 153.964C1002.7 153.866 1003.06 153.817 1003.42 153.817C1003.64 153.817 1003.91 153.844 1004.2 153.9C1004.5 153.952 1004.79 154.061 1005.06 154.228C1005.34 154.394 1005.58 154.645 1005.76 154.98C1005.95 155.316 1006.04 155.765 1006.04 156.328V161H1004.95V160.04H1004.89C1004.82 160.194 1004.7 160.358 1004.52 160.534C1004.35 160.709 1004.12 160.858 1003.84 160.982C1003.55 161.105 1003.2 161.166 1002.79 161.166ZM1002.95 160.188C1003.38 160.188 1003.75 160.103 1004.04 159.934C1004.34 159.764 1004.57 159.546 1004.72 159.278C1004.87 159.01 1004.95 158.729 1004.95 158.433V157.436C1004.9 157.491 1004.8 157.542 1004.64 157.588C1004.49 157.632 1004.31 157.67 1004.11 157.704C1003.91 157.735 1003.71 157.762 1003.52 157.787C1003.33 157.808 1003.18 157.827 1003.06 157.842C1002.78 157.879 1002.52 157.939 1002.27 158.022C1002.03 158.102 1001.83 158.224 1001.68 158.387C1001.53 158.547 1001.46 158.766 1001.46 159.043C1001.46 159.421 1001.6 159.707 1001.88 159.901C1002.16 160.092 1002.52 160.188 1002.95 160.188ZM1013.05 155.497L1012.07 155.774C1012.01 155.611 1011.92 155.453 1011.8 155.299C1011.68 155.142 1011.52 155.012 1011.32 154.911C1011.11 154.809 1010.85 154.759 1010.54 154.759C1010.1 154.759 1009.74 154.859 1009.45 155.059C1009.17 155.256 1009.02 155.506 1009.02 155.811C1009.02 156.082 1009.12 156.296 1009.32 156.453C1009.52 156.61 1009.82 156.741 1010.24 156.845L1011.29 157.104C1011.93 157.258 1012.4 157.493 1012.71 157.81C1013.02 158.124 1013.18 158.529 1013.18 159.024C1013.18 159.43 1013.06 159.794 1012.83 160.114C1012.6 160.434 1012.27 160.686 1011.86 160.871C1011.44 161.055 1010.96 161.148 1010.41 161.148C1009.69 161.148 1009.09 160.991 1008.61 160.677C1008.14 160.363 1007.84 159.904 1007.71 159.301L1008.75 159.043C1008.85 159.424 1009.03 159.71 1009.31 159.901C1009.58 160.092 1009.94 160.188 1010.39 160.188C1010.9 160.188 1011.3 160.08 1011.6 159.864C1011.9 159.646 1012.05 159.384 1012.05 159.08C1012.05 158.833 1011.97 158.627 1011.79 158.461C1011.62 158.292 1011.36 158.165 1011 158.082L1009.82 157.805C1009.17 157.652 1008.69 157.413 1008.39 157.09C1008.08 156.764 1007.93 156.356 1007.93 155.866C1007.93 155.466 1008.05 155.112 1008.27 154.805C1008.5 154.497 1008.81 154.255 1009.2 154.08C1009.59 153.904 1010.04 153.817 1010.54 153.817C1011.24 153.817 1011.79 153.971 1012.19 154.278C1012.59 154.586 1012.88 154.992 1013.05 155.497ZM1019.84 155.497L1018.86 155.774C1018.8 155.611 1018.71 155.453 1018.59 155.299C1018.47 155.142 1018.31 155.012 1018.11 154.911C1017.91 154.809 1017.65 154.759 1017.33 154.759C1016.9 154.759 1016.53 154.859 1016.24 155.059C1015.96 155.256 1015.82 155.506 1015.82 155.811C1015.82 156.082 1015.91 156.296 1016.11 156.453C1016.31 156.61 1016.62 156.741 1017.03 156.845L1018.09 157.104C1018.72 157.258 1019.19 157.493 1019.5 157.81C1019.82 158.124 1019.97 158.529 1019.97 159.024C1019.97 159.43 1019.85 159.794 1019.62 160.114C1019.39 160.434 1019.07 160.686 1018.65 160.871C1018.23 161.055 1017.75 161.148 1017.2 161.148C1016.48 161.148 1015.88 160.991 1015.4 160.677C1014.93 160.363 1014.63 159.904 1014.5 159.301L1015.54 159.043C1015.64 159.424 1015.82 159.71 1016.1 159.901C1016.37 160.092 1016.74 160.188 1017.18 160.188C1017.69 160.188 1018.09 160.08 1018.39 159.864C1018.69 159.646 1018.84 159.384 1018.84 159.08C1018.84 158.833 1018.76 158.627 1018.59 158.461C1018.41 158.292 1018.15 158.165 1017.79 158.082L1016.61 157.805C1015.96 157.652 1015.48 157.413 1015.18 157.09C1014.88 156.764 1014.73 156.356 1014.73 155.866C1014.73 155.466 1014.84 155.112 1015.06 154.805C1015.29 154.497 1015.6 154.255 1015.99 154.08C1016.38 153.904 1016.83 153.817 1017.33 153.817C1018.03 153.817 1018.58 153.971 1018.98 154.278C1019.39 154.586 1019.67 154.992 1019.84 155.497ZM1024.58 161.148C1023.9 161.148 1023.31 160.997 1022.82 160.695C1022.32 160.391 1021.94 159.966 1021.68 159.421C1021.41 158.873 1021.28 158.236 1021.28 157.51C1021.28 156.784 1021.41 156.143 1021.68 155.589C1021.94 155.032 1022.32 154.598 1022.79 154.288C1023.27 153.974 1023.83 153.817 1024.47 153.817C1024.84 153.817 1025.21 153.878 1025.57 154.001C1025.93 154.125 1026.25 154.325 1026.55 154.602C1026.85 154.875 1027.08 155.239 1027.26 155.691C1027.43 156.143 1027.52 156.701 1027.52 157.362V157.824H1022.05V156.882H1026.41C1026.41 156.482 1026.33 156.125 1026.17 155.811C1026.01 155.497 1025.79 155.249 1025.5 155.068C1025.21 154.886 1024.87 154.795 1024.47 154.795C1024.04 154.795 1023.66 154.903 1023.35 155.119C1023.03 155.331 1022.79 155.608 1022.62 155.95C1022.45 156.291 1022.37 156.657 1022.37 157.048V157.676C1022.37 158.212 1022.46 158.666 1022.64 159.038C1022.83 159.407 1023.09 159.689 1023.42 159.883C1023.76 160.074 1024.14 160.169 1024.58 160.169C1024.87 160.169 1025.13 160.129 1025.36 160.049C1025.59 159.966 1025.79 159.843 1025.96 159.68C1026.13 159.513 1026.26 159.307 1026.36 159.061L1027.41 159.357C1027.3 159.714 1027.11 160.027 1026.85 160.298C1026.59 160.566 1026.27 160.775 1025.88 160.926C1025.5 161.074 1025.06 161.148 1024.58 161.148ZM1029.18 161V153.909H1030.23V154.98H1030.3C1030.43 154.629 1030.67 154.345 1031 154.126C1031.34 153.908 1031.73 153.798 1032.15 153.798C1032.23 153.798 1032.33 153.8 1032.45 153.803C1032.57 153.806 1032.66 153.811 1032.72 153.817V154.925C1032.69 154.915 1032.6 154.902 1032.47 154.883C1032.34 154.862 1032.2 154.851 1032.06 154.851C1031.71 154.851 1031.41 154.923 1031.13 155.068C1030.87 155.209 1030.65 155.406 1030.5 155.659C1030.34 155.908 1030.27 156.193 1030.27 156.513V161H1029.18Z" fill="black"/>
<path d="M948.856 186V176.545H952.05C952.789 176.545 953.395 176.672 953.869 176.924C954.343 177.173 954.694 177.516 954.922 177.953C955.15 178.391 955.263 178.888 955.263 179.445C955.263 180.002 955.15 180.496 954.922 180.926C954.694 181.357 954.345 181.696 953.874 181.942C953.403 182.185 952.801 182.307 952.069 182.307H949.484V181.273H952.032C952.537 181.273 952.943 181.199 953.251 181.051C953.562 180.903 953.786 180.694 953.925 180.423C954.066 180.149 954.137 179.823 954.137 179.445C954.137 179.066 954.066 178.735 953.925 178.452C953.783 178.169 953.557 177.95 953.246 177.797C952.935 177.64 952.524 177.561 952.013 177.561H950.001V186H948.856ZM953.306 181.753L955.633 186H954.303L952.013 181.753H953.306ZM959.92 186.148C959.237 186.148 958.648 185.997 958.152 185.695C957.66 185.391 957.28 184.966 957.012 184.421C956.747 183.873 956.615 183.236 956.615 182.51C956.615 181.784 956.747 181.143 957.012 180.589C957.28 180.032 957.652 179.598 958.129 179.288C958.609 178.974 959.169 178.817 959.81 178.817C960.179 178.817 960.544 178.878 960.904 179.001C961.264 179.125 961.592 179.325 961.887 179.602C962.182 179.875 962.418 180.239 962.593 180.691C962.769 181.143 962.856 181.701 962.856 182.362V182.824H957.391V181.882H961.748C961.748 181.482 961.668 181.125 961.508 180.811C961.351 180.497 961.127 180.249 960.834 180.068C960.545 179.886 960.204 179.795 959.81 179.795C959.376 179.795 959 179.903 958.683 180.119C958.369 180.331 958.128 180.608 957.958 180.95C957.789 181.291 957.704 181.657 957.704 182.048V182.676C957.704 183.212 957.797 183.666 957.981 184.038C958.169 184.407 958.429 184.689 958.762 184.883C959.094 185.074 959.48 185.169 959.92 185.169C960.207 185.169 960.465 185.129 960.696 185.049C960.93 184.966 961.131 184.843 961.301 184.68C961.47 184.513 961.601 184.307 961.693 184.061L962.746 184.357C962.635 184.714 962.449 185.027 962.187 185.298C961.925 185.566 961.602 185.775 961.218 185.926C960.833 186.074 960.4 186.148 959.92 186.148ZM967.598 178.909V179.832H963.923V178.909H967.598ZM964.994 177.21H966.083V183.969C966.083 184.277 966.128 184.507 966.217 184.661C966.31 184.812 966.427 184.914 966.568 184.966C966.713 185.015 966.865 185.04 967.025 185.04C967.145 185.04 967.244 185.034 967.321 185.021C967.398 185.006 967.459 184.994 967.505 184.984L967.727 185.963C967.653 185.991 967.55 186.018 967.418 186.046C967.285 186.077 967.117 186.092 966.914 186.092C966.607 186.092 966.305 186.026 966.009 185.894C965.717 185.761 965.474 185.56 965.28 185.289C965.089 185.018 964.994 184.677 964.994 184.264V177.21ZM972.32 178.909V179.832H968.646V178.909H972.32ZM969.717 177.21H970.806V183.969C970.806 184.277 970.851 184.507 970.94 184.661C971.032 184.812 971.149 184.914 971.291 184.966C971.435 185.015 971.588 185.04 971.748 185.04C971.868 185.04 971.966 185.034 972.043 185.021C972.12 185.006 972.182 184.994 972.228 184.984L972.449 185.963C972.376 185.991 972.273 186.018 972.14 186.046C972.008 186.077 971.84 186.092 971.637 186.092C971.329 186.092 971.028 186.026 970.732 185.894C970.44 185.761 970.197 185.56 970.003 185.289C969.812 185.018 969.717 184.677 969.717 184.264V177.21ZM976.856 186.148C976.173 186.148 975.583 185.997 975.088 185.695C974.595 185.391 974.215 184.966 973.948 184.421C973.683 183.873 973.551 183.236 973.551 182.51C973.551 181.784 973.683 181.143 973.948 180.589C974.215 180.032 974.588 179.598 975.065 179.288C975.545 178.974 976.105 178.817 976.745 178.817C977.114 178.817 977.479 178.878 977.839 179.001C978.199 179.125 978.527 179.325 978.823 179.602C979.118 179.875 979.353 180.239 979.529 180.691C979.704 181.143 979.792 181.701 979.792 182.362V182.824H974.326V181.882H978.684C978.684 181.482 978.604 181.125 978.444 180.811C978.287 180.497 978.062 180.249 977.77 180.068C977.481 179.886 977.139 179.795 976.745 179.795C976.311 179.795 975.936 179.903 975.619 180.119C975.305 180.331 975.063 180.608 974.894 180.95C974.725 181.291 974.64 181.657 974.64 182.048V182.676C974.64 183.212 974.732 183.666 974.917 184.038C975.105 184.407 975.365 184.689 975.697 184.883C976.03 185.074 976.416 185.169 976.856 185.169C977.142 185.169 977.401 185.129 977.631 185.049C977.865 184.966 978.067 184.843 978.236 184.68C978.406 184.513 978.536 184.307 978.629 184.061L979.681 184.357C979.57 184.714 979.384 185.027 979.123 185.298C978.861 185.566 978.538 185.775 978.153 185.926C977.768 186.074 977.336 186.148 976.856 186.148ZM981.449 186V178.909H982.502V179.98H982.576C982.705 179.629 982.939 179.345 983.277 179.126C983.616 178.908 983.998 178.798 984.422 178.798C984.502 178.798 984.602 178.8 984.722 178.803C984.842 178.806 984.933 178.811 984.995 178.817V179.925C984.958 179.915 984.873 179.902 984.741 179.883C984.612 179.862 984.475 179.851 984.33 179.851C983.985 179.851 983.678 179.923 983.407 180.068C983.139 180.209 982.927 180.406 982.77 180.659C982.616 180.908 982.539 181.193 982.539 181.513V186H981.449Z" fill="black"/>
<path d="M1216.5 113V102.818H1223.03V104.364H1218.35V107.129H1222.58V108.675H1218.35V113H1216.5ZM1225.55 113.467L1224.65 112.851L1230.08 104.956L1230.99 105.572L1225.55 113.467ZM1227.82 113.159C1227.07 113.159 1226.43 112.995 1225.88 112.667C1225.33 112.339 1224.91 111.88 1224.61 111.29C1224.31 110.696 1224.16 110.007 1224.16 109.222C1224.16 108.433 1224.31 107.742 1224.61 107.148C1224.91 106.555 1225.33 106.094 1225.88 105.766C1226.43 105.438 1227.07 105.274 1227.82 105.274C1228.56 105.274 1229.21 105.438 1229.76 105.766C1230.3 106.094 1230.73 106.555 1231.02 107.148C1231.33 107.742 1231.48 108.433 1231.48 109.222C1231.48 110.007 1231.33 110.696 1231.02 111.29C1230.73 111.88 1230.3 112.339 1229.76 112.667C1229.21 112.995 1228.56 113.159 1227.82 113.159ZM1227.83 111.717C1228.23 111.717 1228.57 111.606 1228.84 111.384C1229.11 111.159 1229.32 110.857 1229.45 110.479C1229.58 110.102 1229.65 109.679 1229.65 109.212C1229.65 108.748 1229.58 108.327 1229.45 107.949C1229.32 107.568 1229.11 107.264 1228.84 107.039C1228.57 106.814 1228.23 106.701 1227.83 106.701C1227.41 106.701 1227.07 106.814 1226.79 107.039C1226.52 107.264 1226.32 107.568 1226.18 107.949C1226.05 108.327 1225.98 108.748 1225.98 109.212C1225.98 109.679 1226.05 110.102 1226.18 110.479C1226.32 110.857 1226.52 111.159 1226.79 111.384C1227.07 111.606 1227.41 111.717 1227.83 111.717ZM1235.22 102.818V113H1233.42V102.818H1235.22ZM1240.82 116.023C1240.17 116.023 1239.61 115.935 1239.15 115.759C1238.69 115.587 1238.31 115.355 1238.03 115.063C1237.75 114.772 1237.55 114.448 1237.45 114.094L1239.07 113.701C1239.14 113.85 1239.25 113.998 1239.38 114.143C1239.52 114.293 1239.71 114.415 1239.95 114.511C1240.18 114.611 1240.48 114.661 1240.85 114.661C1241.36 114.661 1241.78 114.536 1242.11 114.288C1242.45 114.042 1242.62 113.638 1242.62 113.075V111.628H1242.53C1242.43 111.813 1242.3 112.004 1242.12 112.2C1241.94 112.395 1241.71 112.559 1241.42 112.692C1241.13 112.824 1240.77 112.891 1240.33 112.891C1239.74 112.891 1239.21 112.753 1238.73 112.478C1238.26 112.2 1237.88 111.785 1237.6 111.235C1237.32 110.682 1237.18 109.989 1237.18 109.157C1237.18 108.318 1237.32 107.611 1237.6 107.034C1237.88 106.454 1238.26 106.015 1238.74 105.717C1239.22 105.415 1239.75 105.264 1240.33 105.264C1240.78 105.264 1241.15 105.34 1241.44 105.493C1241.73 105.642 1241.96 105.823 1242.13 106.035C1242.31 106.244 1242.44 106.441 1242.53 106.626H1242.63V105.364H1244.4V113.124C1244.4 113.777 1244.25 114.317 1243.93 114.745C1243.62 115.173 1243.2 115.492 1242.66 115.705C1242.12 115.917 1241.5 116.023 1240.82 116.023ZM1240.83 111.479C1241.21 111.479 1241.54 111.386 1241.81 111.2C1242.07 111.015 1242.28 110.748 1242.42 110.4C1242.56 110.052 1242.63 109.634 1242.63 109.147C1242.63 108.666 1242.56 108.246 1242.42 107.884C1242.28 107.523 1242.08 107.243 1241.81 107.044C1241.55 106.842 1241.22 106.741 1240.83 106.741C1240.43 106.741 1240.1 106.845 1239.83 107.054C1239.56 107.263 1239.36 107.549 1239.22 107.914C1239.08 108.275 1239.02 108.686 1239.02 109.147C1239.02 109.614 1239.08 110.024 1239.22 110.375C1239.36 110.723 1239.56 110.995 1239.83 111.19C1240.1 111.383 1240.44 111.479 1240.83 111.479ZM1253.89 113.149C1253.14 113.149 1252.5 112.985 1251.95 112.657C1251.4 112.329 1250.98 111.87 1250.68 111.28C1250.38 110.69 1250.23 110 1250.23 109.212C1250.23 108.423 1250.38 107.732 1250.68 107.138C1250.98 106.545 1251.4 106.085 1251.95 105.756C1252.5 105.428 1253.14 105.264 1253.89 105.264C1254.63 105.264 1255.28 105.428 1255.83 105.756C1256.37 106.085 1256.8 106.545 1257.1 107.138C1257.4 107.732 1257.55 108.423 1257.55 109.212C1257.55 110 1257.4 110.69 1257.1 111.28C1256.8 111.87 1256.37 112.329 1255.83 112.657C1255.28 112.985 1254.63 113.149 1253.89 113.149ZM1253.9 111.707C1254.3 111.707 1254.64 111.596 1254.91 111.374C1255.18 111.149 1255.39 110.847 1255.52 110.469C1255.66 110.092 1255.72 109.671 1255.72 109.207C1255.72 108.739 1255.66 108.317 1255.52 107.939C1255.39 107.558 1255.18 107.254 1254.91 107.029C1254.64 106.804 1254.3 106.691 1253.9 106.691C1253.48 106.691 1253.14 106.804 1252.86 107.029C1252.59 107.254 1252.39 107.558 1252.25 107.939C1252.12 108.317 1252.05 108.739 1252.05 109.207C1252.05 109.671 1252.12 110.092 1252.25 110.469C1252.39 110.847 1252.59 111.149 1252.86 111.374C1253.14 111.596 1253.48 111.707 1253.9 111.707ZM1265.53 107.382L1263.89 107.561C1263.84 107.395 1263.76 107.24 1263.65 107.094C1263.53 106.948 1263.38 106.83 1263.19 106.741C1263 106.651 1262.76 106.607 1262.48 106.607C1262.11 106.607 1261.79 106.688 1261.54 106.85C1261.29 107.013 1261.16 107.223 1261.17 107.482C1261.16 107.704 1261.24 107.884 1261.41 108.023C1261.58 108.163 1261.86 108.277 1262.24 108.366L1263.55 108.645C1264.27 108.801 1264.81 109.048 1265.16 109.386C1265.51 109.724 1265.69 110.166 1265.7 110.713C1265.69 111.194 1265.55 111.618 1265.27 111.986C1265 112.35 1264.61 112.635 1264.12 112.841C1263.63 113.046 1263.07 113.149 1262.43 113.149C1261.5 113.149 1260.75 112.954 1260.18 112.562C1259.61 112.168 1259.27 111.62 1259.16 110.917L1260.91 110.748C1260.99 111.093 1261.16 111.353 1261.42 111.528C1261.68 111.704 1262.01 111.792 1262.43 111.792C1262.86 111.792 1263.2 111.704 1263.46 111.528C1263.72 111.353 1263.85 111.136 1263.85 110.877C1263.85 110.658 1263.77 110.478 1263.6 110.335C1263.43 110.193 1263.17 110.083 1262.82 110.007L1261.52 109.734C1260.79 109.581 1260.24 109.324 1259.89 108.963C1259.54 108.598 1259.37 108.138 1259.37 107.581C1259.37 107.11 1259.5 106.703 1259.75 106.358C1260.02 106.01 1260.38 105.741 1260.84 105.553C1261.31 105.36 1261.85 105.264 1262.46 105.264C1263.35 105.264 1264.06 105.455 1264.57 105.836C1265.09 106.217 1265.41 106.732 1265.53 107.382Z" fill="black"/>
<path d="M1229.67 125.917C1229.67 125.806 1229.62 125.7 1229.54 125.622C1229.47 125.544 1229.36 125.5 1229.25 125.5H1227.17C1226.12 125.448 1225.09 125.813 1224.31 126.516C1223.53 127.218 1223.06 128.201 1223 129.25V131.5H1220.92C1220.81 131.5 1220.7 131.544 1220.62 131.622C1220.54 131.7 1220.5 131.806 1220.5 131.917V134.083C1220.5 134.194 1220.54 134.3 1220.62 134.378C1220.7 134.456 1220.81 134.5 1220.92 134.5H1223V140.083C1223 140.194 1223.04 140.3 1223.12 140.378C1223.2 140.456 1223.31 140.5 1223.42 140.5H1225.92C1226.03 140.5 1226.13 140.456 1226.21 140.378C1226.29 140.3 1226.33 140.194 1226.33 140.083V134.5H1228.52C1228.61 134.501 1228.7 134.472 1228.77 134.416C1228.85 134.36 1228.9 134.281 1228.93 134.192L1229.53 132.025C1229.54 131.963 1229.54 131.899 1229.53 131.836C1229.52 131.774 1229.49 131.715 1229.45 131.664C1229.42 131.613 1229.37 131.572 1229.31 131.544C1229.25 131.515 1229.19 131.5 1229.13 131.5H1226.33V129.25C1226.35 129.044 1226.45 128.853 1226.61 128.714C1226.76 128.575 1226.96 128.499 1227.17 128.5H1229.25C1229.36 128.5 1229.47 128.456 1229.54 128.378C1229.62 128.3 1229.67 128.194 1229.67 128.083V125.917Z" fill="black"/>
<g clip-path="url(#clip0_7_94)">
<path d="M1260.17 127.667H1261.5M1251.5 123.667H1259.5C1260.91 123.667 1262.27 124.229 1263.27 125.229C1264.27 126.229 1264.83 127.585 1264.83 129V137C1264.83 138.414 1264.27 139.771 1263.27 140.771C1262.27 141.771 1260.91 142.333 1259.5 142.333H1251.5C1250.09 142.333 1248.73 141.771 1247.73 140.771C1246.73 139.771 1246.17 138.414 1246.17 137V129C1246.17 127.585 1246.73 126.229 1247.73 125.229C1248.73 124.229 1250.09 123.667 1251.5 123.667ZM1255.5 137C1254.44 137 1253.42 136.579 1252.67 135.828C1251.92 135.078 1251.5 134.061 1251.5 133C1251.5 131.939 1251.92 130.922 1252.67 130.172C1253.42 129.421 1254.44 129 1255.5 129C1256.56 129 1257.58 129.421 1258.33 130.172C1259.08 130.922 1259.5 131.939 1259.5 133C1259.5 134.061 1259.08 135.078 1258.33 135.828C1257.58 136.579 1256.56 137 1255.5 137Z" stroke="black"/>
</g>
<defs>
<clipPath id="clip0_7_94">
<rect width="20" height="20" fill="white" transform="translate(1245.5 123)"/>
</clipPath>
</defs>
</svg>
