<svg width="48" height="48" viewBox="0 0 48 48" fill="none" xmlns="http://www.w3.org/2000/svg">
<g id="Icon-Arrow-Left">
<path id="Fill-25" d="M23.9 47.8C10.7 47.8 6.48677e-06 37.1 4.17881e-06 23.9C1.87085e-06 10.7 10.7 -1.87085e-06 23.9 -4.17881e-06C37.1 -6.48677e-06 47.8 10.7 47.8 23.9C47.8 37.1 37.1 47.8 23.9 47.8ZM23.9 2.6C12.2 2.6 2.6 12.2 2.6 23.9C2.60001 35.6 12.2 45.2 23.9 45.2C35.6 45.2 45.2 35.6 45.2 23.9C45.2 12.2 35.6 2.6 23.9 2.6Z" fill="#BC002D"/>
<path id="Fill-26" d="M23.4 37.6L21.6 35.7L33.3 23.9L21.6 12.1L23.4 10.2L37.1 23.9L23.4 37.6Z" fill="#BC002D"/>
<path id="Fill-27" d="M35.2 25.3L11.2 25.3L11.2 22.5L35.2 22.5L35.2 25.3Z" fill="#BC002D"/>
</g>
</svg>
