<svg width="48" height="48" viewBox="0 0 48 48" fill="none" xmlns="http://www.w3.org/2000/svg">
<g id="Icon-Arrow-Left">
<path id="Fill-25" d="M23.9001 -2.0894e-06C37.1001 -9.35424e-07 47.8001 10.7 47.8001 23.9C47.8 37.1 37.1 47.8 23.9 47.8C10.7001 47.8 5.05265e-05 37.1 5.16805e-05 23.9C5.28344e-05 10.7 10.7001 -3.24338e-06 23.9001 -2.0894e-06ZM23.9 45.2C35.6 45.2 45.2 35.6 45.2001 23.9C45.2001 12.2 35.6001 2.60001 23.9001 2.6C12.2001 2.6 2.60005 12.2 2.60005 23.9C2.60005 35.6 12.2001 45.2 23.9 45.2Z" fill="#BC002D"/>
<path id="Fill-26" d="M24.4001 10.2L26.2001 12.1L14.5001 23.9L26.2001 35.7L24.4001 37.6L10.7001 23.9L24.4001 10.2Z" fill="#BC002D"/>
<path id="Fill-27" d="M12.6001 22.5L36.6001 22.5L36.6001 25.3L12.6001 25.3L12.6001 22.5Z" fill="#BC002D"/>
</g>
</svg>
