<?xml version="1.0" encoding="UTF-8"?>
<svg id="Layer_2" xmlns="http://www.w3.org/2000/svg" viewBox="0 0 310.28 115.95">
  <defs>
    <style>
      .cls-1 {
        fill: #231f20;
        stroke: #231f20;
        stroke-miterlimit: 10;
        stroke-width: 3px;
      }

      .cls-2 {
        fill: #bc2030;
      }
    </style>
  </defs>
  <g id="Layer_1-2" data-name="Layer_1">
    <g>
      <path class="cls-1" d="M138.48,78.46v-40.44h5.7c5.04,8.21,16.62,25.28,20.22,33.6l.12-.06c-.89-8.93-.53-24.01-.6-33.54h4.92v40.44h-5.28c-5.21-8.62-16.37-25.21-20.4-34.02l-.18.06c.59,8.39.39,24.64.42,33.96h-4.92Z"/>
      <path class="cls-1" d="M181.25,41.26c.33,4.12-6.74,4.32-6.54,0-.16-4.29,6.77-4.32,6.54,0ZM175.37,78.46v-29.04h5.28v29.04h-5.28Z"/>
      <path class="cls-1" d="M186.41,58.9c0-3.72-.12-6.72-.24-9.48h4.74l.24,4.98h.12c6.73-10.84,23.48-5.09,22.62,9.12.56,14.57-14.83,20.64-22.14,11.04h-.12v15.78h-5.22v-31.44ZM191.63,66.64c.75,12.52,18.14,10.21,16.98-2.88-.63-16.77-19.82-12.59-16.98,2.88Z"/>
      <path class="cls-1" d="M218.55,58.9c0-3.72-.12-6.72-.24-9.48h4.74l.24,4.98h.12c6.73-10.84,23.48-5.09,22.62,9.12.56,14.57-14.83,20.64-22.14,11.04h-.12v15.78h-5.22v-31.44ZM223.77,66.64c.75,12.52,18.14,10.21,16.98-2.88-.63-16.77-19.82-12.59-16.98,2.88Z"/>
      <path class="cls-1" d="M278.4,63.95c.07,20.92-28.83,19.98-28.38.48-.73-20.3,29.17-20.22,28.38-.48ZM255.36,64.25c-.41,14.57,18.05,14.64,17.64-.12.48-14.59-18.07-14.83-17.64.12Z"/>
      <path class="cls-1" d="M284.06,57.53c0-3-.06-5.46-.24-7.86h4.68l.3,4.8h.12c4.67-8.1,19.84-8.45,19.86,6.9,0,0,0,17.34,0,17.34h-5.28c-1.11-6.33,3.92-25.45-6.72-25.32-11.32.06-6.47,18.68-7.44,25.32h-5.28v-21.18Z"/>
    </g>
  </g>
  <g id="Layer_3">
    <g>
      <path class="cls-2" d="M108.52,28.16C67.67-35.24-29.06,18.8,8.49,87.71c11.83.26,41.05-13.52,49.61-25.54,8.07,10.57,37.3,25.34,50.73,25.54,7.99-17.17,13.73-30.97-.3-59.54ZM72.37,64.15c-2.91-2.54-5.08-4.02-7.51-7.41-2.87-4.05-4.17-4.85-8.13-4.11-4.64,2.18-6.29,8.27-12.59,11.32-8.27-26.49,36.22-29.35,28.23.2ZM87.3,73.08c-2.27-1.29-4.54-2.57-6.8-3.86,14.54-48.28-60.62-43.86-43.57.1-2.37,1.02-4.74,2.03-7.11,3.05-15.02-29.98,19.15-58.18,45.5-41.74,19.31,12.04,17.05,33.1,11.98,42.45ZM103.45,78.37c-2.47-.71-4.94-1.42-7.41-2.13,15.54-32.54-17.87-69.64-51.39-56.87-31.56,13.39-29.88,42.15-23.36,56.67l-7.31,2.34C-6.89,31.86,47.28-10.2,86.69,17.74c26.77,22.01,23.38,43.13,16.76,60.63Z"/>
      <path class="cls-2" d="M91.13,94.83c-16.99,16.54-49.63,15.29-65.17,1.05-3.46-4.2-8.32-1.23-12.69-.56,20.33,26.98,68.25,28.12,89.47-.3-3.78-.41-8.25-3-11.61-.19Z"/>
      <path class="cls-2" d="M45.89,88.46c-5.61-2.37-4.99-3.61-14.19,1.79,12.1,12.38,39.41,12.87,52.08,0-5.8-3.33-9-4.73-11.12-3.15-8.27,4.37-17.16,5.03-26.78,1.36Z"/>
      <path class="cls-2" d="M66.07,80.85c-9.41-7.54-7.19-8.09-16.65-.2,2.52,2.42,14.01,2.59,16.65.2Z"/>
    </g>
  </g>
</svg>