<svg width="80" height="25" viewBox="0 0 80 25" fill="none" xmlns="http://www.w3.org/2000/svg">
<g clip-path="url(#clip0_7_10)">
<path d="M12.5 24.9617C19.4036 24.9617 25 19.3936 25 12.525C25 5.65638 19.4036 0.0882568 12.5 0.0882568C5.59644 0.0882568 0 5.65638 0 12.525C0 19.3936 5.59644 24.9617 12.5 24.9617Z" fill="#BC2030"/>
<path d="M12.5 0.0882568C13.3664 4.7263 12.4332 7.31229 11.278 8.8433C10.319 10.1148 8.86209 11.1227 8.94398 12.7394C9.00864 14.0131 9.98493 14.8108 10.5948 15.4927C11.9095 16.9572 13.1142 19.6332 12.5 24.9617" fill="#BC2030"/>
<path d="M12.5 0.0882568C13.3664 4.7263 12.4332 7.31229 11.278 8.8433C10.319 10.1148 8.86209 11.1227 8.94398 12.7394C9.00864 14.0131 9.98493 14.8108 10.5948 15.4927C11.9095 16.9572 13.1142 19.6332 12.5 24.9617" stroke="white" stroke-miterlimit="10"/>
</g>
<path d="M31.912 18.5089H30.344V6.94091H31.912L38.264 16.5409H37.832V6.94091H39.4V18.5089H37.832L31.48 8.90891H31.912V18.5089ZM41.358 18.5089V10.6849H42.862V18.5089H41.358ZM42.094 8.82891C41.8273 8.82891 41.5927 8.73291 41.39 8.54091C41.198 8.33824 41.102 8.10358 41.102 7.83691C41.102 7.55958 41.198 7.32491 41.39 7.13291C41.5927 6.94091 41.8273 6.84491 42.094 6.84491C42.3713 6.84491 42.606 6.94091 42.798 7.13291C42.99 7.32491 43.086 7.55958 43.086 7.83691C43.086 8.10358 42.99 8.33824 42.798 8.54091C42.606 8.73291 42.3713 8.82891 42.094 8.82891ZM44.5655 22.0129V10.6849H45.9255L46.0375 12.0929C46.2935 11.5489 46.6722 11.1436 47.1735 10.8769C47.6855 10.5996 48.2508 10.4609 48.8695 10.4609C49.6162 10.4609 50.2615 10.6369 50.8055 10.9889C51.3495 11.3302 51.7655 11.8102 52.0535 12.4289C52.3522 13.0369 52.5015 13.7409 52.5015 14.5409C52.5015 15.3409 52.3575 16.0556 52.0695 16.6849C51.7922 17.3142 51.3815 17.8102 50.8375 18.1729C50.3042 18.5356 49.6482 18.7169 48.8695 18.7169C48.2402 18.7169 47.6802 18.5889 47.1895 18.3329C46.6988 18.0769 46.3255 17.7089 46.0695 17.2289V22.0129H44.5655ZM46.0855 14.6049C46.0855 15.1276 46.1815 15.6022 46.3735 16.0289C46.5762 16.4449 46.8588 16.7702 47.2215 17.0049C47.5948 17.2396 48.0375 17.3569 48.5495 17.3569C49.0615 17.3569 49.4988 17.2396 49.8615 17.0049C50.2242 16.7596 50.5015 16.4289 50.6935 16.0129C50.8962 15.5969 50.9975 15.1276 50.9975 14.6049C50.9975 14.0609 50.8962 13.5809 50.6935 13.1649C50.5015 12.7489 50.2242 12.4236 49.8615 12.1889C49.4988 11.9542 49.0615 11.8369 48.5495 11.8369C48.0375 11.8369 47.5948 11.9542 47.2215 12.1889C46.8588 12.4236 46.5762 12.7489 46.3735 13.1649C46.1815 13.5809 46.0855 14.0609 46.0855 14.6049ZM53.6792 22.0129V10.6849H55.0392L55.1512 12.0929C55.4072 11.5489 55.7859 11.1436 56.2872 10.8769C56.7992 10.5996 57.3646 10.4609 57.9832 10.4609C58.7299 10.4609 59.3752 10.6369 59.9193 10.9889C60.4632 11.3302 60.8792 11.8102 61.1672 12.4289C61.4659 13.0369 61.6152 13.7409 61.6152 14.5409C61.6152 15.3409 61.4712 16.0556 61.1832 16.6849C60.9059 17.3142 60.4952 17.8102 59.9512 18.1729C59.4179 18.5356 58.7619 18.7169 57.9832 18.7169C57.3539 18.7169 56.7939 18.5889 56.3032 18.3329C55.8126 18.0769 55.4392 17.7089 55.1832 17.2289V22.0129H53.6792ZM55.1992 14.6049C55.1992 15.1276 55.2952 15.6022 55.4872 16.0289C55.6899 16.4449 55.9726 16.7702 56.3352 17.0049C56.7086 17.2396 57.1512 17.3569 57.6632 17.3569C58.1752 17.3569 58.6126 17.2396 58.9752 17.0049C59.3379 16.7596 59.6152 16.4289 59.8073 16.0129C60.0099 15.5969 60.1112 15.1276 60.1112 14.6049C60.1112 14.0609 60.0099 13.5809 59.8073 13.1649C59.6152 12.7489 59.3379 12.4236 58.9752 12.1889C58.6126 11.9542 58.1752 11.8369 57.6632 11.8369C57.1512 11.8369 56.7086 11.9542 56.3352 12.1889C55.9726 12.4236 55.6899 12.7489 55.4872 13.1649C55.2952 13.5809 55.1992 14.0609 55.1992 14.6049ZM62.281 14.5889C62.281 13.7889 62.457 13.0796 62.809 12.4609C63.161 11.8422 63.641 11.3569 64.249 11.0049C64.8677 10.6529 65.5717 10.4769 66.361 10.4769C67.1503 10.4769 67.849 10.6529 68.457 11.0049C69.065 11.3569 69.545 11.8422 69.897 12.4609C70.249 13.0796 70.425 13.7889 70.425 14.5889C70.425 15.3889 70.249 16.0982 69.897 16.7169C69.545 17.3356 69.065 17.8209 68.457 18.1729C67.849 18.5249 67.1503 18.7009 66.361 18.7009C65.5717 18.7009 64.8677 18.5249 64.249 18.1729C63.641 17.8209 63.161 17.3356 62.809 16.7169C62.457 16.0982 62.281 15.3889 62.281 14.5889ZM63.801 14.5889C63.801 15.1329 63.9077 15.6129 64.121 16.0289C64.345 16.4449 64.649 16.7702 65.033 17.0049C65.417 17.2396 65.8597 17.3569 66.361 17.3569C66.8623 17.3569 67.305 17.2396 67.689 17.0049C68.073 16.7702 68.3717 16.4449 68.585 16.0289C68.809 15.6129 68.921 15.1329 68.921 14.5889C68.921 14.0342 68.809 13.5542 68.585 13.1489C68.3717 12.7329 68.073 12.4076 67.689 12.1729C67.305 11.9382 66.8623 11.8209 66.361 11.8209C65.8597 11.8209 65.417 11.9382 65.033 12.1729C64.649 12.4076 64.345 12.7329 64.121 13.1489C63.9077 13.5542 63.801 14.0342 63.801 14.5889ZM73.1139 18.5089H71.6099V10.6849H72.9699L73.1299 11.8849C73.3752 11.4369 73.7272 11.0902 74.1859 10.8449C74.6552 10.5889 75.1672 10.4609 75.7219 10.4609C76.7459 10.4609 77.5032 10.7542 77.9939 11.3409C78.4845 11.9276 78.7299 12.7222 78.7299 13.7249V18.5089H77.2259V14.0609C77.2259 13.2716 77.0552 12.7062 76.7139 12.3649C76.3725 12.0129 75.9139 11.8369 75.3379 11.8369C74.6339 11.8369 74.0845 12.0662 73.6899 12.5249C73.3059 12.9836 73.1139 13.5969 73.1139 14.3649V18.5089Z" fill="black"/>
<defs>
<clipPath id="clip0_7_10">
<rect width="25" height="25" fill="white" transform="translate(0 0.00891113)"/>
</clipPath>
</defs>
</svg>
