<?xml version="1.0" encoding="UTF-8"?>
<svg id="Layer_2" data-name="Layer 2" xmlns="http://www.w3.org/2000/svg" viewBox="0 0 340.08 135.5">
  <defs>
    <style>
      .cls-1 {
        fill: #bc2030;
        stroke-width: 0px;
      }

      .cls-2 {
        fill: #231f20;
        font-family: SatoshiVariable-Bold, 'Satoshi Variable';
        font-size: 60px;
        font-variation-settings: 'wght' 700;
        font-weight: 700;
        letter-spacing: -.05em;
      }
    </style>
  </defs>
  <g id="Layer_1-2" data-name="Layer 1">
    <text class="cls-2" transform="translate(149.34 91.52)"><tspan x="0" y="0">Nippon</tspan></text>
  </g>
  <g id="Layer_3" data-name="Layer 3">
    <g>
      <path class="cls-1" d="M125.82,32.9C113.85,12.99,91.31-.23,66.82,0,35.94.29,17.45,21.83,15.38,24.32c-1.4,1.69-19.78,24.6-14.4,54.99,1.79,10.08,5.63,17.83,8.61,22.77,8.49-1.06,22.22-3.91,36.7-12.57,9.4-5.62,16.26-11.99,20.94-17.11,5.54,5.63,14.5,13.44,27.26,19.82,12.52,6.26,23.92,8.77,31.68,9.85,2.81-4.87,6.42-12.46,8.14-22.3.84-4.81,4.03-26.06-8.5-46.88ZM83.82,74.71c-1.97-1.69-3.93-3.38-5.9-5.07-.63-.78-1.62-2.02-2.83-3.54-2.18-2.74-2.44-3.38-3.42-4.01-1.8-1.16-4.19-1.29-6.02-.76-3.04.87-3.78,3.35-6.96,6.9-1.51,1.68-3.94,4.02-7.67,6.25-.17-.46-3.6-10.45,2.83-18.17,5.35-6.42,15.34-8.65,23.13-3.78,7.38,4.62,10.33,14.1,6.84,22.18ZM101.16,85.09c-2.64-1.49-5.27-2.99-7.91-4.48,6.63-14.66.07-31.88-13.92-38.23-13.98-6.34-30.43.4-36.81,12.74-6.07,11.73-.66,23.92.12,25.6-2.75,1.18-5.51,2.36-8.26,3.54-7.24-14.61-4.56-32.09,6.49-43.3,13.08-13.27,33.19-12.99,46.37-5.19,12.66,7.49,16.36,20.41,16.87,22.3,3.66,13.59-1.66,24.53-2.95,27.02ZM119.92,91.23c-2.87-.83-5.74-1.65-8.61-2.48,8.45-19.35,4.11-41.72-10.62-55.69-12.97-12.3-32.19-16.38-49.09-10.38-21.8,7.74-28.84,28.38-29.5,30.44-5.58,17.36.77,31.99,2.36,35.4l-8.5,2.71c-11.06-24.91-3.49-54.03,17.58-69.73,20.82-15.51,48.47-13.28,66.9-.71,20.23,13.8,23.86,36.29,24.19,38.58,2.17,14.98-2.42,26.83-4.72,31.86Z"/>
      <path class="cls-1" d="M105.61,110.36c-5.63,4.79-18.77,14.1-37.37,14.43-20.36.36-34.55-10.28-38.35-13.22-.8-.62-1.51-1.2-2.13-1.73-1.02-.87-2.39-1.21-3.7-.92-2.97.67-5.94,1.33-8.91,2,2.3,2.78,21.59,25.37,53.57,24.54,30.19-.78,47.87-21.8,50.38-24.9-2.65-.55-5.3-1.09-7.95-1.64-1.97-.41-4.01.12-5.54,1.42Z"/>
      <path class="cls-1" d="M53.05,102.95c-.45-.17-.96-.37-1.58-.65-1.36-.61-2.16-1.09-2.5-1.26-1.7-.86-5.06-.72-12.41,3.99,2.63,2.3,13.95,11.64,31,11.36,16.12-.26,26.74-8.94,29.52-11.36-5.56-3.43-10.31-4.97-11.64-4.33-.12.06-1.38.7-1.38.71,0,0,.1-.05.1-.05,0,0-2.66,1.46-5.76,2.52-1.42.48-2.52.74-3.18.89-4.25.99-7.8.96-9.2.92,0,0-4.75-.14-9.73-1.63-1.58-.47-3.24-1.12-3.24-1.12Z"/>
      <path class="cls-1" d="M76.49,94.12c-2.99-2.37-5.98-4.73-8.96-7.1-.51-.4-1.23-.4-1.74,0-2.88,2.29-5.77,4.58-8.65,6.86,1.68.88,5.14,2.41,9.75,2.44,4.5.03,7.9-1.37,9.6-2.2Z"/>
    </g>
  </g>
</svg>